<svg width="88" height="86" viewBox="0 0 88 86" fill="none" xmlns="http://www.w3.org/2000/svg">
<circle cx="45.1711" cy="42.829" r="31.0332" transform="rotate(122.39 45.1711 42.829)" fill="url(#paint0_linear)"/>
<g clip-path="url(#clip0)">
<path d="M25.9999 67.7333C17.8758 67.7333 11.2666 61.1241 11.2666 52.9999C11.2666 44.8758 17.8758 38.2666 25.9999 38.2666C34.1241 38.2666 40.7333 44.8758 40.7333 52.9999C40.7333 61.1241 34.1241 67.7333 25.9999 67.7333ZM25.9999 39.9999C18.8317 39.9999 12.9999 45.8317 12.9999 52.9999C12.9999 60.1681 18.8317 65.9999 25.9999 65.9999C33.1681 65.9999 38.9999 60.1681 38.9999 52.9999C38.9999 45.8317 33.1681 39.9999 25.9999 39.9999Z" fill="url(#paint1_linear)"/>
<path d="M26.0002 67.7333C21.6261 67.7333 18.2002 61.261 18.2002 52.9999C18.2002 44.7389 21.6261 38.2666 26.0002 38.2666C30.3743 38.2666 33.8002 44.7389 33.8002 52.9999C33.8002 61.261 30.3743 67.7333 26.0002 67.7333ZM26.0002 39.9999C22.7121 39.9999 19.9335 45.9531 19.9335 52.9999C19.9335 60.0468 22.7121 65.9999 26.0002 65.9999C29.2883 65.9999 32.0669 60.0468 32.0669 52.9999C32.0669 45.9531 29.2883 39.9999 26.0002 39.9999Z" fill="url(#paint2_linear)"/>
<path d="M39.8666 53.8666H12.1333C11.6549 53.8666 11.2666 53.4792 11.2666 53C11.2666 52.5207 11.6549 52.1333 12.1333 52.1333H39.8666C40.345 52.1333 40.7333 52.5207 40.7333 53C40.7333 53.4792 40.345 53.8666 39.8666 53.8666Z" fill="url(#paint3_linear)"/>
<path d="M26 67.7333C25.5216 67.7333 25.1333 67.3459 25.1333 66.8666V39.1333C25.1333 38.654 25.5216 38.2666 26 38.2666C26.4784 38.2666 26.8666 38.654 26.8666 39.1333V66.8666C26.8666 67.3459 26.4784 67.7333 26 67.7333Z" fill="url(#paint4_linear)"/>
<path d="M6.93334 79C3.11047 79 0 75.8895 0 72.0666C0 68.2438 3.11047 65.1333 6.93334 65.1333C10.7562 65.1333 13.8667 68.2438 13.8667 72.0666C13.8667 75.8895 10.7562 79 6.93334 79ZM6.93334 66.8666C4.0664 66.8666 1.73333 69.1988 1.73333 72.0666C1.73333 74.9344 4.0664 77.2666 6.93334 77.2666C9.80027 77.2666 12.1333 74.9344 12.1333 72.0666C12.1333 69.1988 9.80027 66.8666 6.93334 66.8666Z" fill="url(#paint5_linear)"/>
<path d="M4.33346 72.9332C3.85506 72.9332 3.4668 72.5458 3.4668 72.0665C3.4668 70.1547 5.0216 68.5999 6.93346 68.5999C7.41186 68.5999 7.80013 68.9873 7.80013 69.4665C7.80013 69.9458 7.41186 70.3332 6.93346 70.3332C5.97753 70.3332 5.20013 71.1106 5.20013 72.0665C5.20013 72.5458 4.81186 72.9332 4.33346 72.9332Z" fill="url(#paint6_linear)"/>
<path d="M45.0666 79C41.2438 79 38.1333 75.8895 38.1333 72.0666C38.1333 68.2438 41.2438 65.1333 45.0666 65.1333C48.8895 65.1333 52 68.2438 52 72.0666C52 75.8895 48.8895 79 45.0666 79ZM45.0666 66.8666C42.1988 66.8666 39.8666 69.1988 39.8666 72.0666C39.8666 74.9344 42.1988 77.2666 45.0666 77.2666C47.9344 77.2666 50.2666 74.9344 50.2666 72.0666C50.2666 69.1988 47.9344 66.8666 45.0666 66.8666Z" fill="url(#paint7_linear)"/>
<path d="M42.4668 72.9332C41.9884 72.9332 41.6001 72.5458 41.6001 72.0665C41.6001 70.1547 43.1549 68.5999 45.0668 68.5999C45.5452 68.5999 45.9334 68.9873 45.9334 69.4665C45.9334 69.9458 45.5452 70.3332 45.0668 70.3332C44.1108 70.3332 43.3334 71.1106 43.3334 72.0665C43.3334 72.5458 42.9452 72.9332 42.4668 72.9332Z" fill="url(#paint8_linear)"/>
<path d="M6.93333 40.8667C3.11047 40.8667 0 37.7562 0 33.9333C0 30.1105 3.11047 27 6.93333 27C10.7562 27 13.8667 30.1105 13.8667 33.9333C13.8667 37.7562 10.7562 40.8667 6.93333 40.8667ZM6.93333 28.7333C4.0664 28.7333 1.73333 31.0655 1.73333 33.9333C1.73333 36.8011 4.0664 39.1333 6.93333 39.1333C9.80027 39.1333 12.1333 36.8011 12.1333 33.9333C12.1333 31.0655 9.80027 28.7333 6.93333 28.7333Z" fill="url(#paint9_linear)"/>
<path d="M4.33346 34.7999C3.85506 34.7999 3.4668 34.4125 3.4668 33.9332C3.4668 32.0214 5.0216 30.4666 6.93346 30.4666C7.41186 30.4666 7.80013 30.854 7.80013 31.3332C7.80013 31.8125 7.41186 32.1999 6.93346 32.1999C5.97753 32.1999 5.20013 32.9773 5.20013 33.9332C5.20013 34.4125 4.81186 34.7999 4.33346 34.7999Z" fill="url(#paint10_linear)"/>
<path d="M45.0666 40.8667C41.2438 40.8667 38.1333 37.7562 38.1333 33.9333C38.1333 30.1105 41.2438 27 45.0666 27C48.8895 27 52 30.1105 52 33.9333C52 37.7562 48.8895 40.8667 45.0666 40.8667ZM45.0666 28.7333C42.1988 28.7333 39.8666 31.0655 39.8666 33.9333C39.8666 36.8011 42.1988 39.1333 45.0666 39.1333C47.9344 39.1333 50.2666 36.8011 50.2666 33.9333C50.2666 31.0655 47.9344 28.7333 45.0666 28.7333Z" fill="url(#paint11_linear)"/>
<path d="M42.4668 34.7999C41.9884 34.7999 41.6001 34.4125 41.6001 33.9332C41.6001 32.0214 43.1549 30.4666 45.0668 30.4666C45.5452 30.4666 45.9334 30.854 45.9334 31.3332C45.9334 31.8125 45.5452 32.1999 45.0668 32.1999C44.1108 32.1999 43.3334 32.9773 43.3334 33.9332C43.3334 34.4125 42.9452 34.7999 42.4668 34.7999Z" fill="url(#paint12_linear)"/>
<path d="M16.1989 44.0655C15.977 44.0655 15.7551 43.9806 15.5861 43.8116L10.6106 38.8361C10.2717 38.4972 10.2717 37.9495 10.6106 37.6106C10.9486 37.2717 11.4981 37.2717 11.8361 37.6106L16.8116 42.5861C17.1505 42.925 17.1505 43.4727 16.8116 43.8116C16.6426 43.9815 16.4207 44.0655 16.1989 44.0655Z" fill="url(#paint13_linear)"/>
<path d="M35.801 44.0655C35.5791 44.0655 35.3572 43.9806 35.1882 43.8116C34.8494 43.4727 34.8494 42.925 35.1882 42.5861L40.1638 37.6106C40.5026 37.2717 41.0504 37.2717 41.3892 37.6106C41.7281 37.9495 41.7281 38.4972 41.3892 38.8361L36.4137 43.8116C36.2447 43.9815 36.0228 44.0655 35.801 44.0655Z" fill="url(#paint14_linear)"/>
<path d="M40.7764 68.6432C40.5546 68.6432 40.3327 68.5583 40.1637 68.3893L35.1916 63.4181C34.8528 63.0792 34.8528 62.5315 35.1916 62.1926C35.5305 61.8538 36.0783 61.8538 36.4171 62.1926L41.3892 67.1638C41.7281 67.5027 41.7281 68.0504 41.3892 68.3893C41.2202 68.5583 40.9983 68.6432 40.7764 68.6432Z" fill="url(#paint15_linear)"/>
<path d="M11.2233 68.6434C11.0015 68.6434 10.7796 68.5585 10.6106 68.3895C10.2717 68.0506 10.2717 67.5029 10.6106 67.164L15.5861 62.1885C15.9241 61.8496 16.4736 61.8496 16.8116 62.1885C17.1505 62.5273 17.1505 63.0751 16.8116 63.4139L11.8361 68.3895C11.6671 68.5585 11.4452 68.6434 11.2233 68.6434Z" fill="url(#paint16_linear)"/>
</g>
<defs>
<linearGradient id="paint0_linear" x1="45.222" y1="-71.4688" x2="45.1711" y2="73.8622" gradientUnits="userSpaceOnUse">
<stop offset="0.620679" stop-color="white"/>
<stop offset="0.758079" stop-color="#F2EDFF"/>
<stop offset="0.971822" stop-color="#DDCEFF"/>
</linearGradient>
<linearGradient id="paint1_linear" x1="25.9999" y1="38.2666" x2="25.9999" y2="67.7333" gradientUnits="userSpaceOnUse">
<stop stop-color="#322970"/>
<stop offset="1" stop-color="#251E54"/>
</linearGradient>
<linearGradient id="paint2_linear" x1="26.0002" y1="38.2666" x2="26.0002" y2="67.7333" gradientUnits="userSpaceOnUse">
<stop stop-color="#322970"/>
<stop offset="1" stop-color="#251E54"/>
</linearGradient>
<linearGradient id="paint3_linear" x1="25.9999" y1="52.1333" x2="25.9999" y2="53.8666" gradientUnits="userSpaceOnUse">
<stop stop-color="#322970"/>
<stop offset="1" stop-color="#251E54"/>
</linearGradient>
<linearGradient id="paint4_linear" x1="26" y1="38.2666" x2="26" y2="67.7333" gradientUnits="userSpaceOnUse">
<stop stop-color="#322970"/>
<stop offset="1" stop-color="#251E54"/>
</linearGradient>
<linearGradient id="paint5_linear" x1="6.93334" y1="65.1333" x2="6.93334" y2="79" gradientUnits="userSpaceOnUse">
<stop stop-color="#322970"/>
<stop offset="1" stop-color="#251E54"/>
</linearGradient>
<linearGradient id="paint6_linear" x1="5.63346" y1="68.5999" x2="5.63346" y2="72.9332" gradientUnits="userSpaceOnUse">
<stop stop-color="#322970"/>
<stop offset="1" stop-color="#251E54"/>
</linearGradient>
<linearGradient id="paint7_linear" x1="45.0666" y1="65.1333" x2="45.0666" y2="79" gradientUnits="userSpaceOnUse">
<stop stop-color="#322970"/>
<stop offset="1" stop-color="#251E54"/>
</linearGradient>
<linearGradient id="paint8_linear" x1="43.7668" y1="68.5999" x2="43.7668" y2="72.9332" gradientUnits="userSpaceOnUse">
<stop stop-color="#322970"/>
<stop offset="1" stop-color="#251E54"/>
</linearGradient>
<linearGradient id="paint9_linear" x1="6.93333" y1="27" x2="6.93333" y2="40.8667" gradientUnits="userSpaceOnUse">
<stop stop-color="#322970"/>
<stop offset="1" stop-color="#251E54"/>
</linearGradient>
<linearGradient id="paint10_linear" x1="5.63346" y1="30.4666" x2="5.63346" y2="34.7999" gradientUnits="userSpaceOnUse">
<stop stop-color="#322970"/>
<stop offset="1" stop-color="#251E54"/>
</linearGradient>
<linearGradient id="paint11_linear" x1="45.0666" y1="27" x2="45.0666" y2="40.8667" gradientUnits="userSpaceOnUse">
<stop stop-color="#322970"/>
<stop offset="1" stop-color="#251E54"/>
</linearGradient>
<linearGradient id="paint12_linear" x1="43.7668" y1="30.4666" x2="43.7668" y2="34.7999" gradientUnits="userSpaceOnUse">
<stop stop-color="#322970"/>
<stop offset="1" stop-color="#251E54"/>
</linearGradient>
<linearGradient id="paint13_linear" x1="13.7111" y1="37.3564" x2="13.7111" y2="44.0655" gradientUnits="userSpaceOnUse">
<stop stop-color="#322970"/>
<stop offset="1" stop-color="#251E54"/>
</linearGradient>
<linearGradient id="paint14_linear" x1="38.2887" y1="37.3564" x2="38.2887" y2="44.0655" gradientUnits="userSpaceOnUse">
<stop stop-color="#322970"/>
<stop offset="1" stop-color="#251E54"/>
</linearGradient>
<linearGradient id="paint15_linear" x1="38.2904" y1="61.9385" x2="38.2904" y2="68.6432" gradientUnits="userSpaceOnUse">
<stop stop-color="#322970"/>
<stop offset="1" stop-color="#251E54"/>
</linearGradient>
<linearGradient id="paint16_linear" x1="13.7111" y1="61.9343" x2="13.7111" y2="68.6434" gradientUnits="userSpaceOnUse">
<stop stop-color="#322970"/>
<stop offset="1" stop-color="#251E54"/>
</linearGradient>
<clipPath id="clip0">
<rect width="52" height="52" fill="white" transform="translate(0 27)"/>
</clipPath>
</defs>
</svg>
