<svg width="24" height="24" viewBox="0 0 24 24" fill="none" xmlns="http://www.w3.org/2000/svg">
<circle cx="12" cy="12" r="12" fill="black"/>
<path d="M6.92256 9.8565C6.73456 10.0805 6.43506 10.258 6.13606 10.232C6.09656 9.93 6.24556 9.6065 6.41756 9.406C6.60506 9.1775 6.93306 9.0135 7.19906 9C7.23056 9.3155 7.10756 9.6255 6.92306 9.8565H6.92256ZM7.19606 10.2915C6.76156 10.265 6.38856 10.541 6.18256 10.541C5.97206 10.541 5.65656 10.3045 5.31306 10.3125C4.86756 10.318 4.45106 10.5725 4.22456 10.982C3.75306 11.7965 4.10206 13.0025 4.55506 13.6665C4.77656 13.9945 5.04156 14.354 5.39106 14.344C5.72156 14.3305 5.85456 14.1255 6.25306 14.1255C6.65656 14.1255 6.77106 14.344 7.12306 14.336C7.48456 14.3305 7.71356 14.008 7.93506 13.68C8.18756 13.3075 8.29156 12.9425 8.29706 12.9245C8.29156 12.9165 7.59656 12.6485 7.59156 11.841C7.58606 11.1635 8.13806 10.841 8.16156 10.8225C7.85156 10.354 7.36206 10.3045 7.19556 10.292L7.19606 10.2915ZM9.70406 9.3745V14.302H10.4616V12.6175H11.5091C12.4646 12.6175 13.1366 11.9535 13.1366 10.995C13.1366 10.0345 12.4781 9.375 11.5351 9.375L9.70406 9.3745ZM10.4616 10.0205H11.3341C11.9901 10.0205 12.3656 10.3745 12.3656 10.997C12.3656 11.6195 11.9901 11.9765 11.3291 11.9765H10.4616V10.0205ZM14.5161 14.3385C14.9926 14.3385 15.4326 14.0965 15.6336 13.7105H15.6496V14.302H16.3496V11.8485C16.3496 11.1405 15.7876 10.68 14.9201 10.68C14.1181 10.68 13.5241 11.146 13.5036 11.784H14.1831C14.2406 11.4795 14.5166 11.2815 14.8996 11.2815C15.3631 11.2815 15.6211 11.5 15.6211 11.9015V12.172L14.6786 12.2295C13.7981 12.284 13.3241 12.646 13.3241 13.279C13.3241 13.917 13.8141 14.339 14.5166 14.339L14.5161 14.3385ZM14.7221 13.755C14.3181 13.755 14.0606 13.5595 14.0606 13.2605C14.0606 12.9505 14.3081 12.768 14.7791 12.739L15.6206 12.687V12.9655C15.6206 13.427 15.2326 13.755 14.7191 13.755H14.7221ZM17.2846 15.643C18.0211 15.643 18.3681 15.3565 18.6701 14.4945L19.9981 10.729H19.2301L18.3396 13.6375H18.3236L17.4331 10.729H16.6416L17.9231 14.315L17.8551 14.5335C17.7376 14.901 17.5506 15.0435 17.2171 15.0435C17.1571 15.0435 17.0426 15.036 16.9956 15.031V15.6225C17.0396 15.635 17.2276 15.6405 17.2821 15.6405L17.2846 15.643Z" fill="#F8F7F9"/>
</svg>
