<svg width="24" height="24" viewBox="0 0 24 24" fill="none" xmlns="http://www.w3.org/2000/svg">
<path d="M13.4835 19.0374L13.4835 8.28493L18.3073 12.9825C18.6928 13.3579 19.3254 13.3579 19.7109 12.9825C19.896 12.8027 20 12.5585 20 12.3039C20 12.0492 19.896 11.8051 19.7109 11.6252L13.1969 5.28157C12.8114 4.90614 12.1886 4.90614 11.8031 5.28157L5.28913 11.6252C4.90363 12.0006 4.90363 12.6071 5.28913 12.9825C5.67463 13.3579 6.29737 13.3579 6.68287 12.9825L11.5066 8.28493L11.5066 19.0374C11.5066 19.5668 11.9514 20 12.4951 20C13.0387 20 13.4835 19.5668 13.4835 19.0374Z" fill="#66F6FF"/>
</svg>
