<svg width="24" height="24" viewBox="0 0 24 24" fill="none" xmlns="http://www.w3.org/2000/svg">
<circle cx="12" cy="12" r="12" fill="#053EFF"/>
<path d="M10.6516 12.0231C10.6516 12.0231 11.9763 11.9229 11.9763 10.3464C11.9763 8.7678 10.8924 8 9.51875 8H5V16.814H9.51875C9.51875 16.814 12.278 16.902 12.278 14.212C12.2773 14.2113 12.3978 12.0231 10.6516 12.0231ZM6.99122 9.56561H9.51875C9.51875 9.56561 10.1335 9.56561 10.1335 10.4821C10.1335 11.3999 9.77221 11.5328 9.36192 11.5328H6.99122V9.56561ZM9.39062 15.2471H6.99122V12.8912H9.51875C9.51875 12.8912 10.4345 12.8789 10.4345 14.1015C10.4345 15.1325 9.7505 15.2396 9.39062 15.2471ZM15.9566 10.2414C12.6162 10.2414 12.619 13.6283 12.619 13.6283C12.619 13.6283 12.3908 16.9975 15.9566 16.9975C15.9566 16.9975 18.9273 17.1707 18.9273 14.6538H17.3996C17.3996 14.6538 17.45 15.6023 16.0077 15.6023C16.0077 15.6023 14.4786 15.706 14.4786 14.0681H18.9756C18.9763 14.0674 19.472 10.2414 15.9566 10.2414ZM17.3156 12.8912H14.4632C14.4632 12.8912 14.6494 11.5328 15.9909 11.5328C17.3324 11.5328 17.3156 12.8912 17.3156 12.8912ZM17.6706 8.51755H14.0879V9.60447H17.6706V8.51755Z" fill="#F8F7F9"/>
</svg>
