<svg width="120" height="120" viewBox="0 0 120 120" fill="none" xmlns="http://www.w3.org/2000/svg">
<g filter="url(#filter0_ddd)">
<path d="M69.605 62.3338L66.2183 61.9472C65.405 61.8538 64.605 62.1338 64.0316 62.7072L61.5783 65.1605C57.805 63.2405 54.7116 60.1605 52.7916 56.3738L55.2583 53.9072C55.8316 53.3338 56.1116 52.5338 56.0183 51.7205L55.6316 48.3605C55.4716 47.0138 54.3383 46.0005 52.9783 46.0005H50.6716C49.165 46.0005 47.9116 47.2538 48.005 48.7605C48.7116 60.1472 57.8183 69.2405 69.1916 69.9472C70.6983 70.0405 71.9516 68.7872 71.9516 67.2805V64.9738C71.965 63.6272 70.9516 62.4938 69.605 62.3338Z" fill="white"/>
</g>
<defs>
<filter id="filter0_ddd" x="6.10352e-05" y="0.000488281" width="119.952" height="119.952" filterUnits="userSpaceOnUse" color-interpolation-filters="sRGB">
<feFlood flood-opacity="0" result="BackgroundImageFix"/>
<feColorMatrix in="SourceAlpha" type="matrix" values="0 0 0 0 0 0 0 0 0 0 0 0 0 0 0 0 0 0 127 0"/>
<feOffset dy="2.70715"/>
<feGaussianBlur stdDeviation="1.55353"/>
<feColorMatrix type="matrix" values="0 0 0 0 0 0 0 0 0 0 0 0 0 0 0 0 0 0 0.16 0"/>
<feBlend mode="normal" in2="BackgroundImageFix" result="effect1_dropShadow"/>
<feColorMatrix in="SourceAlpha" type="matrix" values="0 0 0 0 0 0 0 0 0 0 0 0 0 0 0 0 0 0 127 0"/>
<feOffset dy="2"/>
<feGaussianBlur stdDeviation="5.0662"/>
<feColorMatrix type="matrix" values="0 0 0 0 0 0 0 0 0 0 0 0 0 0 0 0 0 0 0.2 0"/>
<feBlend mode="normal" in2="effect1_dropShadow" result="effect2_dropShadow"/>
<feColorMatrix in="SourceAlpha" type="matrix" values="0 0 0 0 0 0 0 0 0 0 0 0 0 0 0 0 0 0 127 0"/>
<feOffset dy="2"/>
<feGaussianBlur stdDeviation="24"/>
<feColorMatrix type="matrix" values="0 0 0 0 0 0 0 0 0 0 0 0 0 0 0 0 0 0 0.72 0"/>
<feBlend mode="normal" in2="effect2_dropShadow" result="effect3_dropShadow"/>
<feBlend mode="normal" in="SourceGraphic" in2="effect3_dropShadow" result="shape"/>
</filter>
</defs>
</svg>
