<svg width="24" height="24" viewBox="0 0 24 24" fill="none" xmlns="http://www.w3.org/2000/svg">
<circle cx="12" cy="12" r="12" fill="#6DD92B"/>
<path d="M16.8024 14.1667L15.1091 13.9733C14.7024 13.9267 14.3024 14.0667 14.0158 14.3533L12.7891 15.58C10.9024 14.62 9.35578 13.08 8.39578 11.1867L9.62912 9.95333C9.91578 9.66667 10.0558 9.26667 10.0091 8.86L9.81578 7.18C9.73578 6.50667 9.16912 6 8.48912 6H7.33578C6.58245 6 5.95578 6.62667 6.00245 7.38C6.35578 13.0733 10.9091 17.62 16.5958 17.9733C17.3491 18.02 17.9758 17.3933 17.9758 16.64V15.4867C17.9824 14.8133 17.4758 14.2467 16.8024 14.1667Z" fill="white"/>
</svg>
