<svg width="88" height="90" viewBox="0 0 88 90" fill="none" xmlns="http://www.w3.org/2000/svg">
<circle cx="45.1711" cy="42.829" r="31.0332" transform="rotate(122.39 45.1711 42.829)" fill="url(#paint0_linear)"/>
<g clip-path="url(#clip0)">
<path d="M32.2043 40.5281C31.5099 40.5281 30.9463 41.0917 30.9463 41.7861C30.9463 42.4804 31.5099 43.044 32.2043 43.044C32.8986 43.044 33.4622 42.4804 33.4622 41.7861C33.4622 41.0917 32.8986 40.5281 32.2043 40.5281Z" fill="url(#paint1_linear)"/>
<path d="M11.3219 63.1715C12.0163 63.1715 12.5799 62.6078 12.5799 61.9135C12.5799 61.2192 12.0163 60.6555 11.3219 60.6555C10.6276 60.6555 10.064 61.2192 10.064 61.9135C10.064 62.6078 10.6276 63.1715 11.3219 63.1715Z" fill="url(#paint2_linear)"/>
<path d="M42.268 27.9482C30.9428 27.9482 21.6475 35.7565 20.9286 45.5919C10.1429 46.1329 0 53.9102 0 64.4296C0 68.8256 1.73955 73.085 4.90611 76.46C5.53264 79.0427 4.77196 81.7803 2.8845 83.6678C2.5248 84.0275 2.41718 84.5685 2.61178 85.0388C2.80637 85.5086 3.26484 85.8152 3.77393 85.8152C7.36162 85.8152 10.8191 84.4083 13.3881 81.9292C15.8908 82.7823 19.1561 83.2992 22.1404 83.2992C33.4642 83.2992 42.7584 75.4929 43.4793 65.6595C46.1132 65.5426 48.8528 65.0561 51.0203 64.3175C53.5893 66.7966 57.0468 68.2035 60.6345 68.2035C61.1436 68.2035 61.6021 67.8969 61.7966 67.4271C61.9912 66.9568 61.8836 66.4158 61.5239 66.0561C59.6365 64.1686 58.8758 61.4311 59.5023 58.8483C62.6689 55.4734 64.4084 51.2139 64.4084 46.8179C64.4084 35.8877 53.4842 27.9482 42.268 27.9482ZM22.1404 80.7833C19.1714 80.7833 15.7881 80.2005 13.5218 79.2988C13.0363 79.1052 12.4815 79.2324 12.1282 79.6182C10.6093 81.2786 8.63434 82.4363 6.48251 82.9685C7.66825 80.6968 7.97096 78.0187 7.24958 75.4811C7.19258 75.2811 7.08693 75.0983 6.94197 74.9494C4.08793 72.0099 2.51595 68.2738 2.51595 64.4296C2.51595 55.5648 11.5026 48.0759 22.1404 48.0759C32.1855 48.0759 41.0101 55.0611 41.0101 64.4296C41.0101 73.4472 32.5452 80.7833 22.1404 80.7833ZM57.4665 57.3377C57.3215 57.4871 57.2158 57.6699 57.1588 57.8694C56.4375 60.407 56.7402 63.0851 57.9259 65.3568C55.7741 64.8251 53.7992 63.6669 52.2802 62.0065C51.9269 61.6212 51.3721 61.4935 50.8866 61.6871C48.9225 62.4684 46.1206 63.0094 43.4754 63.1401C43.1078 58.3829 40.7349 53.9117 36.6779 50.5918H53.0866C53.7815 50.5918 54.3446 50.0287 54.3446 49.3339C54.3446 48.639 53.7815 48.0759 53.0866 48.0759H32.8131C29.9575 46.6223 26.7512 45.7747 23.451 45.5968C24.1738 37.1477 32.3374 30.4642 42.268 30.4642C52.9058 30.4642 61.8925 37.9531 61.8925 46.8179C61.8925 50.6621 60.3205 54.3982 57.4665 57.3377Z" fill="url(#paint3_linear)"/>
<path d="M32.2042 60.6555H16.3537C15.6588 60.6555 15.0957 61.2187 15.0957 61.9135C15.0957 62.6083 15.6588 63.1715 16.3537 63.1715H32.2042C32.899 63.1715 33.4622 62.6083 33.4622 61.9135C33.4622 61.2187 32.899 60.6555 32.2042 60.6555Z" fill="url(#paint4_linear)"/>
<path d="M32.2044 68.2036H11.3219C10.6271 68.2036 10.064 68.7668 10.064 69.4616C10.064 70.1564 10.6271 70.7196 11.3219 70.7196H32.2044C32.8992 70.7196 33.4623 70.1564 33.4623 69.4616C33.4623 68.7668 32.8992 68.2036 32.2044 68.2036Z" fill="url(#paint5_linear)"/>
<path d="M53.0865 40.5281H37.236C36.5412 40.5281 35.978 41.0912 35.978 41.7861C35.978 42.4809 36.5412 43.044 37.236 43.044H53.0865C53.7814 43.044 54.3445 42.4809 54.3445 41.7861C54.3445 41.0912 53.7814 40.5281 53.0865 40.5281Z" fill="url(#paint6_linear)"/>
</g>
<defs>
<linearGradient id="paint0_linear" x1="45.222" y1="-71.4688" x2="45.1711" y2="73.8622" gradientUnits="userSpaceOnUse">
<stop offset="0.620679" stop-color="white"/>
<stop offset="0.758079" stop-color="#F2EDFF"/>
<stop offset="0.971822" stop-color="#DDCEFF"/>
</linearGradient>
<linearGradient id="paint1_linear" x1="32.2043" y1="40.5281" x2="32.2043" y2="43.044" gradientUnits="userSpaceOnUse">
<stop stop-color="#322970"/>
<stop offset="1" stop-color="#251E54"/>
</linearGradient>
<linearGradient id="paint2_linear" x1="11.3219" y1="60.6555" x2="11.3219" y2="63.1715" gradientUnits="userSpaceOnUse">
<stop stop-color="#322970"/>
<stop offset="1" stop-color="#251E54"/>
</linearGradient>
<linearGradient id="paint3_linear" x1="32.2042" y1="27.9482" x2="32.2042" y2="85.8152" gradientUnits="userSpaceOnUse">
<stop stop-color="#322970"/>
<stop offset="1" stop-color="#251E54"/>
</linearGradient>
<linearGradient id="paint4_linear" x1="24.2789" y1="60.6555" x2="24.2789" y2="63.1715" gradientUnits="userSpaceOnUse">
<stop stop-color="#322970"/>
<stop offset="1" stop-color="#251E54"/>
</linearGradient>
<linearGradient id="paint5_linear" x1="21.7632" y1="68.2036" x2="21.7632" y2="70.7196" gradientUnits="userSpaceOnUse">
<stop stop-color="#322970"/>
<stop offset="1" stop-color="#251E54"/>
</linearGradient>
<linearGradient id="paint6_linear" x1="45.1613" y1="40.5281" x2="45.1613" y2="43.044" gradientUnits="userSpaceOnUse">
<stop stop-color="#322970"/>
<stop offset="1" stop-color="#251E54"/>
</linearGradient>
<clipPath id="clip0">
<rect width="64.4084" height="64.4084" fill="white" transform="translate(0 24.6775)"/>
</clipPath>
</defs>
</svg>
