<svg width="24" height="24" viewBox="0 0 24 24" fill="none" xmlns="http://www.w3.org/2000/svg">
<circle cx="12" cy="12" r="12" fill="#F2831D"/>
<path d="M16.8 9.5L12 12.625L7.2 9.5V8.25L12 11.375L16.8 8.25V9.5ZM16.8 7H7.2C6.534 7 6 7.55625 6 8.25V15.75C6 16.0815 6.12643 16.3995 6.35147 16.6339C6.57652 16.8683 6.88174 17 7.2 17H16.8C17.1183 17 17.4235 16.8683 17.6485 16.6339C17.8736 16.3995 18 16.0815 18 15.75V8.25C18 7.91848 17.8736 7.60054 17.6485 7.36612C17.4235 7.1317 17.1183 7 16.8 7Z" fill="#F8F7F9"/>
</svg>
