<svg width="24" height="24" viewBox="0 0 24 24" fill="none" xmlns="http://www.w3.org/2000/svg">
<circle opacity="0.6" cx="12" cy="12" r="12" fill="#66F6FF"/>
<path d="M11.0847 13.0547C11.3508 13.313 11.3508 13.7369 11.0847 13.9951C10.8315 14.2534 10.416 14.2534 10.1629 13.9951C9.55485 13.3739 9.21335 12.5319 9.21335 11.6541C9.21335 10.7762 9.55485 9.93424 10.1629 9.31303L12.4609 6.96867C13.0698 6.34839 13.8952 6 14.7557 6C15.6162 6 16.4415 6.34839 17.0505 6.96867C17.6585 7.58988 18 8.43186 18 9.30972C18 10.1876 17.6585 11.0296 17.0505 11.6508L16.0832 12.6375C16.0897 12.0945 16.0053 11.5514 15.8236 11.0349L16.1287 10.717C16.3107 10.5334 16.4551 10.3147 16.5537 10.0737C16.6523 9.83272 16.7031 9.57417 16.7031 9.31303C16.7031 9.05189 16.6523 8.79334 16.5537 8.55235C16.4551 8.31136 16.3107 8.09271 16.1287 7.90906C15.9486 7.72341 15.7343 7.57602 15.4981 7.47543C15.2619 7.37485 15.0084 7.32305 14.7524 7.32305C14.4965 7.32305 14.243 7.37485 14.0068 7.47543C13.7706 7.57602 13.5562 7.72341 13.3762 7.90906L11.0847 10.2468C10.9027 10.4305 10.7582 10.6491 10.6596 10.8901C10.561 11.1311 10.5103 11.3896 10.5103 11.6508C10.5103 11.9119 10.561 12.1705 10.6596 12.4115C10.7582 12.6524 10.9027 12.8711 11.0847 13.0547ZM12.9153 10.2468C13.1685 9.98853 13.584 9.98853 13.8371 10.2468C14.4451 10.868 14.7867 11.71 14.7867 12.5879C14.7867 13.4657 14.4451 14.3077 13.8371 14.9289L11.5391 17.2733C10.9302 17.8936 10.1048 18.2419 9.24431 18.2419C8.3838 18.2419 7.55845 17.8936 6.94952 17.2733C6.3415 16.6521 6 15.8101 6 14.9322C6 14.0544 6.3415 13.2124 6.94952 12.5912L7.91677 11.6044C7.91028 12.1475 7.99467 12.6905 8.17644 13.2137L7.87133 13.5249C7.68935 13.7086 7.54487 13.9272 7.44627 14.1682C7.34767 14.4092 7.2969 14.6678 7.2969 14.9289C7.2969 15.1901 7.34767 15.4486 7.44627 15.6896C7.54487 15.9306 7.68935 16.1492 7.87133 16.3329C8.05135 16.5185 8.26568 16.6659 8.50191 16.7665C8.73814 16.8671 8.99158 16.9189 9.24756 16.9189C9.50354 16.9189 9.75697 16.8671 9.9932 16.7665C10.2294 16.6659 10.4438 16.5185 10.6238 16.3329L12.9153 13.9951C13.0973 13.8115 13.2418 13.5928 13.3404 13.3518C13.439 13.1109 13.4897 12.8523 13.4897 12.5912C13.4897 12.33 13.439 12.0715 13.3404 11.8305C13.2418 11.5895 13.0973 11.3708 12.9153 11.1872C12.8523 11.1269 12.802 11.0541 12.7677 10.9732C12.7333 10.8924 12.7156 10.8051 12.7156 10.717C12.7156 10.6289 12.7333 10.5417 12.7677 10.4608C12.802 10.3799 12.8523 10.3071 12.9153 10.2468Z" fill="#F8F7F9"/>
</svg>
