<svg width="24" height="24" viewBox="0 0 24 24" fill="none" xmlns="http://www.w3.org/2000/svg">
<path d="M24 12C24 5.37258 18.6274 0 12 0C5.37258 0 0 5.37258 0 12C0 18.6274 5.37258 24 12 24C18.6274 24 24 18.6274 24 12Z" fill="#1778F2"/>
<path d="M12.957 18.7733V12.3499H15.1131L15.4364 9.84652H12.957V8.24822C12.957 7.52349 13.1583 7.02957 14.1976 7.02957H15.5232V4.79122C14.8816 4.72334 14.2368 4.69047 13.5916 4.69274C11.6803 4.69274 10.3718 5.85929 10.3718 8.00175V9.84652H8.21021V12.3499H10.3718V18.7733H12.957Z" fill="#FDFDFD"/>
</svg>
