<svg width="37" height="37" viewBox="0 0 37 37" fill="none" xmlns="http://www.w3.org/2000/svg">
<mask id="mask0" mask-type="alpha" maskUnits="userSpaceOnUse" x="0" y="0" width="37" height="37">
<circle cx="18.5" cy="18.5" r="18.5" fill="#EDEDED"/>
</mask>
<g mask="url(#mask0)">
<path d="M8.23174 38.4049C6.74099 38.3882 5.26426 38.1148 3.86637 37.5966C2.84557 37.2193 1.922 36.6186 1.16319 35.8385C0.380939 35.0812 -0.22064 34.1574 -0.596865 33.1357C-1.11462 31.7378 -1.38765 30.2612 -1.40396 28.7707C-1.51845 26.2927 -1.5415 25.5495 -1.5415 19.2706C-1.5415 12.9918 -1.51619 12.2512 -1.4051 9.77135C-1.3868 8.28138 -1.11344 6.80555 -0.596865 5.40787C-0.218809 4.3869 0.381918 3.46297 1.16168 2.70318C1.91955 1.92163 2.84355 1.32061 3.86523 0.944639C5.26312 0.426454 6.73985 0.153042 8.2306 0.136406C10.7093 0.0230492 11.4537 0 17.7291 0C24.0046 0 24.7486 0.0253163 27.2284 0.136406C28.7188 0.154573 30.195 0.427939 31.593 0.944639C32.6143 1.32111 33.538 1.92192 34.2962 2.7028C35.0773 3.46125 35.6784 4.38524 36.0551 5.40674C36.5735 6.8046 36.847 8.28133 36.8638 9.77211C36.9771 12.252 37.0002 12.9945 37.0002 19.2714C37.0002 25.5483 36.9771 26.2908 36.8638 28.7707C36.8458 30.2612 36.5723 31.7376 36.0551 33.1357C35.664 34.1495 35.0649 35.0702 34.2964 35.8386C33.5279 36.6069 32.607 37.2057 31.593 37.5966C30.1952 38.115 28.7184 38.3885 27.2277 38.4053C24.7501 38.5186 24.0053 38.5417 17.7284 38.5417C11.4514 38.5417 10.709 38.5197 8.23136 38.4053" fill="url(#paint0_radial)"/>
<path d="M8.23174 38.4049C6.74099 38.3882 5.26426 38.1148 3.86637 37.5966C2.84557 37.2193 1.922 36.6186 1.16319 35.8385C0.380939 35.0812 -0.22064 34.1574 -0.596865 33.1357C-1.11462 31.7378 -1.38765 30.2612 -1.40396 28.7707C-1.51845 26.2927 -1.5415 25.5495 -1.5415 19.2706C-1.5415 12.9918 -1.51619 12.2512 -1.4051 9.77135C-1.3868 8.28138 -1.11344 6.80555 -0.596865 5.40787C-0.218809 4.3869 0.381918 3.46297 1.16168 2.70318C1.91955 1.92163 2.84355 1.32061 3.86523 0.944639C5.26312 0.426454 6.73985 0.153042 8.2306 0.136406C10.7093 0.0230492 11.4537 0 17.7291 0C24.0046 0 24.7486 0.0253163 27.2284 0.136406C28.7188 0.154573 30.195 0.427939 31.593 0.944639C32.6143 1.32111 33.538 1.92192 34.2962 2.7028C35.0773 3.46125 35.6784 4.38524 36.0551 5.40674C36.5735 6.8046 36.847 8.28133 36.8638 9.77211C36.9771 12.252 37.0002 12.9945 37.0002 19.2714C37.0002 25.5483 36.9771 26.2908 36.8638 28.7707C36.8458 30.2612 36.5723 31.7376 36.0551 33.1357C35.664 34.1495 35.0649 35.0702 34.2964 35.8386C33.5279 36.6069 32.607 37.2057 31.593 37.5966C30.1952 38.115 28.7184 38.3885 27.2277 38.4053C24.7501 38.5186 24.0053 38.5417 17.7284 38.5417C11.4514 38.5417 10.709 38.5197 8.23136 38.4053" fill="url(#paint1_radial)"/>
</g>
<path d="M14.9034 18.4985C14.9035 17.7871 15.1145 17.0917 15.5098 16.5001C15.9052 15.9086 16.467 15.4476 17.1243 15.1755C17.7817 14.9033 18.505 14.8321 19.2027 14.971C19.9005 15.1098 20.5415 15.4525 21.0445 15.9556C21.5475 16.4588 21.89 17.0997 22.0287 17.7975C22.1674 18.4953 22.0961 19.2186 21.8238 19.8758C21.5514 20.533 21.0902 21.0948 20.4986 21.4899C19.907 21.8851 19.2115 22.096 18.5 22.0959C17.546 22.0957 16.6312 21.7166 15.9567 21.042C15.2822 20.3674 14.9033 19.4525 14.9034 18.4985ZM12.9586 18.4985C12.9586 19.5945 13.2836 20.6658 13.8925 21.5771C14.5014 22.4883 15.3668 23.1985 16.3794 23.6179C17.392 24.0373 18.5062 24.1471 19.5811 23.9333C20.656 23.7195 21.6434 23.1917 22.4184 22.4168C23.1934 21.6418 23.7212 20.6545 23.935 19.5796C24.1488 18.5047 24.0391 17.3905 23.6196 16.378C23.2002 15.3655 22.49 14.5001 21.5787 13.8912C20.6674 13.2823 19.596 12.9573 18.5 12.9573C17.7723 12.9573 17.0517 13.1006 16.3794 13.379C15.707 13.6575 15.0961 14.0657 14.5816 14.5802C14.067 15.0948 13.6588 15.7056 13.3803 16.378C13.1019 17.0503 12.9586 17.7708 12.9586 18.4985ZM22.9658 12.7378C22.9657 12.9939 23.0415 13.2442 23.1837 13.4573C23.3259 13.6703 23.5281 13.8363 23.7647 13.9344C24.0012 14.0325 24.2616 14.0583 24.5128 14.0084C24.764 13.9586 24.9948 13.8354 25.176 13.6543C25.3572 13.4733 25.4806 13.2427 25.5307 12.9915C25.5808 12.7403 25.5552 12.48 25.4573 12.2433C25.3594 12.0067 25.1935 11.8044 24.9806 11.662C24.7678 11.5196 24.5174 11.4436 24.2613 11.4434C23.918 11.4436 23.5888 11.58 23.346 11.8227C23.1032 12.0654 22.9667 12.3945 22.9664 12.7378H22.9658ZM14.1407 27.2825C13.4564 27.275 12.7785 27.1498 12.1367 26.9123C11.6712 26.7329 11.2485 26.458 10.8957 26.1054C10.5429 25.7527 10.2678 25.3301 10.0882 24.8647C9.85061 24.223 9.72538 23.5451 9.71797 22.8608C9.66557 21.7234 9.65532 21.3816 9.65532 18.5C9.65532 15.6183 9.66671 15.2774 9.71797 14.1389C9.72627 13.4547 9.85148 12.7769 10.0882 12.1349C10.2676 11.6693 10.5426 11.2465 10.8954 10.8936C11.2482 10.5408 11.6711 10.2659 12.1367 10.0865C12.7785 9.84891 13.4564 9.72368 14.1407 9.71626C15.2782 9.66386 15.6199 9.65361 18.5006 9.65361C21.3812 9.65361 21.7233 9.66472 22.8619 9.71655C23.5461 9.72485 24.2239 9.85006 24.8659 10.0868C25.3315 10.2662 25.7544 10.5411 26.1072 10.8939C26.46 11.2468 26.735 11.6696 26.9144 12.1352C27.152 12.7769 27.2772 13.4549 27.2846 14.1392C27.337 15.2783 27.3473 15.6183 27.3473 18.5002C27.3473 21.3822 27.3367 21.7228 27.2846 22.8613C27.2767 23.5456 27.1514 24.2234 26.9144 24.8653C26.7348 25.3307 26.4597 25.7533 26.1069 26.1059C25.7541 26.4586 25.3314 26.7335 24.8659 26.9129C24.2241 27.1504 23.5462 27.2757 22.8619 27.2831C21.7244 27.3355 21.3827 27.3457 18.5006 27.3457C15.6185 27.3457 15.2779 27.3352 14.1407 27.2831V27.2825ZM14.0513 7.77322C13.1559 7.79083 12.27 7.9603 11.4313 8.27443C10.7143 8.55162 10.0632 8.97557 9.51965 9.51909C8.97611 10.0626 8.55214 10.7137 8.27494 11.4306C7.96084 12.2693 7.79136 13.1552 7.77371 14.0506C7.72046 15.2011 7.7085 15.569 7.7085 18.4997C7.7085 21.4303 7.72074 21.798 7.77371 22.9488C7.79136 23.8441 7.96083 24.73 8.27494 25.5687C8.55216 26.2856 8.97613 26.9367 9.51967 27.4802C10.0632 28.0237 10.7143 28.4477 11.4313 28.7249C12.27 29.0389 13.1559 29.2084 14.0513 29.2261C15.2024 29.2785 15.5698 29.2913 18.5006 29.2913C21.4314 29.2913 21.799 29.2791 22.9499 29.2261C23.8453 29.2084 24.7312 29.039 25.5699 28.7249C26.2869 28.4477 26.938 28.0237 27.4815 27.4802C28.025 26.9367 28.449 26.2856 28.7262 25.5687C29.0408 24.7302 29.2103 23.8442 29.2275 22.9488C29.2799 21.7974 29.2918 21.4303 29.2918 18.4997C29.2918 15.569 29.2796 15.2014 29.2275 14.0506C29.2099 13.1552 29.0404 12.2693 28.7262 11.4306C28.449 10.7138 28.0252 10.0628 27.4818 9.51934C26.9384 8.97584 26.2875 8.55181 25.5708 8.27443C24.7321 7.9601 23.8462 7.79062 22.9507 7.77322C21.7999 7.72054 21.4322 7.70801 18.502 7.70801C15.5718 7.70801 15.2033 7.72025 14.0519 7.77322" fill="white"/>
<defs>
<radialGradient id="paint0_radial" cx="0" cy="0" r="1" gradientUnits="userSpaceOnUse" gradientTransform="translate(0.952721 37.6972) scale(48.9331)">
<stop offset="0.09" stop-color="#FA8F21"/>
<stop offset="0.78" stop-color="#D82D7E"/>
</radialGradient>
<radialGradient id="paint1_radial" cx="0" cy="0" r="1" gradientUnits="userSpaceOnUse" gradientTransform="translate(25.1548 36.4593) scale(43.0616)">
<stop offset="0.64" stop-color="#8C3AAA" stop-opacity="0"/>
<stop offset="1" stop-color="#8C3AAA"/>
</radialGradient>
</defs>
</svg>
