<svg width="24" height="24" viewBox="0 0 24 24" fill="none" xmlns="http://www.w3.org/2000/svg">
<mask id="mask0" mask-type="alpha" maskUnits="userSpaceOnUse" x="0" y="0" width="24" height="24">
<circle cx="12" cy="12" r="12" fill="#EDEDED"/>
</mask>
<g mask="url(#mask0)">
<path d="M5.3394 24.9113C4.37243 24.9005 3.41455 24.7231 2.50781 24.387C1.84567 24.1423 1.2466 23.7526 0.754395 23.2466C0.24699 22.7554 -0.143223 22.1561 -0.387261 21.4934C-0.723102 20.5867 -0.900201 19.6289 -0.910785 18.6621C-0.985049 17.0547 -1 16.5726 -1 12.4999C-1 8.42712 -0.983579 7.94674 -0.91152 6.33817C-0.899652 5.37171 -0.722336 4.41441 -0.387261 3.50781C-0.142035 2.84556 0.247625 2.24625 0.753414 1.75341C1.24501 1.24647 1.84436 0.856615 2.50707 0.612739C3.41381 0.276619 4.37169 0.0992707 5.33866 0.0884795C6.94649 0.0149508 7.42933 0 11.4999 0C15.5704 0 16.053 0.0164214 17.6616 0.0884795C18.6283 0.100264 19.5858 0.277582 20.4927 0.612739C21.1551 0.856937 21.7543 1.24665 22.2461 1.75317C22.7528 2.24514 23.1426 2.84448 23.387 3.50707C23.7232 4.4138 23.9007 5.37168 23.9115 6.33866C23.9851 7.94723 24 8.42884 24 12.5004C24 16.5719 23.9851 17.0535 23.9115 18.6621C23.8999 19.6289 23.7224 20.5866 23.387 21.4934C23.1333 22.1511 22.7447 22.7483 22.2462 23.2466C21.7477 23.745 21.1504 24.1335 20.4927 24.387C19.586 24.7232 18.6281 24.9006 17.6611 24.9115C16.054 24.9851 15.5709 25 11.4994 25C7.42786 25 6.94625 24.9858 5.33915 24.9115" fill="url(#paint0_radial)"/>
<path d="M5.3394 24.9113C4.37243 24.9005 3.41455 24.7231 2.50781 24.387C1.84567 24.1423 1.2466 23.7526 0.754395 23.2466C0.24699 22.7554 -0.143223 22.1561 -0.387261 21.4934C-0.723102 20.5867 -0.900201 19.6289 -0.910785 18.6621C-0.985049 17.0547 -1 16.5726 -1 12.4999C-1 8.42712 -0.983579 7.94674 -0.91152 6.33817C-0.899652 5.37171 -0.722336 4.41441 -0.387261 3.50781C-0.142035 2.84556 0.247625 2.24625 0.753414 1.75341C1.24501 1.24647 1.84436 0.856615 2.50707 0.612739C3.41381 0.276619 4.37169 0.0992707 5.33866 0.0884795C6.94649 0.0149508 7.42933 0 11.4999 0C15.5704 0 16.053 0.0164214 17.6616 0.0884795C18.6283 0.100264 19.5858 0.277582 20.4927 0.612739C21.1551 0.856937 21.7543 1.24665 22.2461 1.75317C22.7528 2.24514 23.1426 2.84448 23.387 3.50707C23.7232 4.4138 23.9007 5.37168 23.9115 6.33866C23.985 7.94723 24 8.42884 24 12.5004C24 16.5719 23.985 17.0535 23.9115 18.6621C23.8998 19.6289 23.7224 20.5866 23.387 21.4934C23.1333 22.1511 22.7447 22.7483 22.2462 23.2466C21.7477 23.745 21.1504 24.1335 20.4927 24.387C19.586 24.7232 18.6281 24.9006 17.6611 24.9115C16.054 24.985 15.5709 25 11.4994 25C7.42786 25 6.94625 24.9858 5.33915 24.9115" fill="url(#paint1_radial)"/>
</g>
<path d="M9.66698 11.9993C9.66701 11.5378 9.8039 11.0867 10.0603 10.703C10.3168 10.3193 10.6812 10.0203 11.1076 9.84375C11.534 9.66719 12.0031 9.62104 12.4557 9.71112C12.9083 9.80119 13.3241 10.0235 13.6504 10.3498C13.9767 10.6762 14.1988 11.0919 14.2888 11.5446C14.3788 11.9972 14.3325 12.4663 14.1558 12.8926C13.9792 13.3189 13.6801 13.6833 13.2963 13.9396C12.9125 14.196 12.4614 14.3327 11.9999 14.3327C11.3811 14.3326 10.7877 14.0867 10.3502 13.6491C9.91268 13.2115 9.66693 12.618 9.66698 11.9993ZM8.40547 11.9993C8.40547 12.7101 8.61628 13.4051 9.01124 13.9961C9.4062 14.5872 9.96758 15.0479 10.6244 15.32C11.2812 15.592 12.0039 15.6632 12.7011 15.5245C13.3984 15.3858 14.0389 15.0435 14.5416 14.5408C15.0443 14.0381 15.3866 13.3977 15.5253 12.7005C15.664 12.0032 15.5928 11.2806 15.3207 10.6238C15.0487 9.96701 14.588 9.40565 13.9969 9.01071C13.4058 8.61576 12.7108 8.40496 11.9999 8.40496C11.5279 8.40493 11.0605 8.49789 10.6243 8.67851C10.1882 8.85913 9.79198 9.12388 9.4582 9.45765C9.12442 9.79142 8.85966 10.1877 8.67903 10.6238C8.4984 11.0598 8.40544 11.5272 8.40547 11.9993ZM14.8966 8.26254C14.8966 8.42866 14.9458 8.59107 15.038 8.72924C15.1302 8.86741 15.2614 8.97512 15.4148 9.03876C15.5683 9.1024 15.7371 9.11911 15.9001 9.08677C16.063 9.05443 16.2128 8.9745 16.3303 8.85709C16.4478 8.73967 16.5279 8.59005 16.5603 8.42713C16.5928 8.26422 16.5763 8.09533 16.5128 7.94182C16.4492 7.78832 16.3416 7.6571 16.2036 7.56474C16.0655 7.47239 15.9031 7.42306 15.737 7.42299C15.5143 7.42308 15.3007 7.51156 15.1433 7.66897C14.9858 7.82639 14.8972 8.03987 14.897 8.26254H14.8966ZM9.17227 17.697C8.72839 17.6921 8.28866 17.6109 7.87234 17.4568C7.57041 17.3405 7.2962 17.1622 7.06735 16.9334C6.8385 16.7047 6.66009 16.4306 6.54359 16.1287C6.38948 15.7124 6.30825 15.2727 6.30344 14.8288C6.26945 14.091 6.2628 13.8694 6.2628 12.0002C6.2628 10.131 6.27019 9.90988 6.30344 9.17137C6.30883 8.72756 6.39004 8.28793 6.54359 7.87148C6.65995 7.56948 6.83832 7.29521 7.06718 7.06636C7.29604 6.8375 7.57032 6.65915 7.87234 6.54279C8.28864 6.38869 8.72839 6.30746 9.17227 6.30265C9.91008 6.26866 10.1317 6.26201 12.0003 6.26201C13.8688 6.26201 14.0907 6.26922 14.8292 6.30284C15.273 6.30822 15.7127 6.38944 16.1291 6.54297C16.4312 6.65934 16.7054 6.8377 16.9343 7.06655C17.1631 7.29541 17.3415 7.56967 17.4579 7.87167C17.612 8.28796 17.6932 8.72769 17.698 9.17155C17.732 9.91044 17.7387 10.131 17.7387 12.0004C17.7387 13.8697 17.7318 14.0907 17.698 14.8292C17.6929 15.273 17.6116 15.7127 17.4579 16.1291C17.3414 16.4309 17.163 16.7051 16.9341 16.9338C16.7053 17.1625 16.4311 17.3408 16.1291 17.4572C15.7128 17.6113 15.2731 17.6925 14.8292 17.6973C14.0914 17.7313 13.8697 17.738 12.0003 17.738C10.1308 17.738 9.90989 17.7312 9.17227 17.6973V17.697ZM9.11427 5.0423C8.53345 5.05372 7.95879 5.16365 7.41477 5.36741C6.94971 5.54721 6.52737 5.8222 6.1748 6.17475C5.82224 6.52731 5.54723 6.94964 5.36742 7.41467C5.16368 7.95868 5.05375 8.53331 5.0423 9.1141C5.00776 9.86038 5 10.099 5 12C5 13.901 5.00794 14.1394 5.0423 14.8859C5.05375 15.4667 5.16368 16.0413 5.36742 16.5853C5.54724 17.0504 5.82225 17.4727 6.17481 17.8252C6.52738 18.1778 6.94972 18.4528 7.41477 18.6326C7.95881 18.8363 8.53346 18.9462 9.11427 18.9577C9.86094 18.9917 10.0992 19 12.0003 19C13.9013 19 14.1398 18.9921 14.8863 18.9577C15.4671 18.9462 16.0418 18.8363 16.5858 18.6326C17.0508 18.4528 17.4732 18.1778 17.8257 17.8252C18.1783 17.4727 18.4533 17.0504 18.6331 16.5853C18.8371 16.0414 18.9471 15.4667 18.9583 14.8859C18.9922 14.1391 19 13.901 19 12C19 10.099 18.9921 9.86056 18.9583 9.1141C18.9468 8.53331 18.8369 7.95867 18.6331 7.41467C18.4533 6.94972 18.1784 6.52746 17.8259 6.17492C17.4735 5.82238 17.0513 5.54733 16.5863 5.36741C16.0424 5.16352 15.4677 5.05359 14.8868 5.0423C14.1404 5.00813 13.9019 5 12.0012 5C10.1005 5 9.86149 5.00794 9.11464 5.0423" fill="white"/>
<defs>
<radialGradient id="paint0_radial" cx="0" cy="0" r="1" gradientUnits="userSpaceOnUse" gradientTransform="translate(0.617876 24.4522) scale(31.7404)">
<stop offset="0.09" stop-color="#FA8F21"/>
<stop offset="0.78" stop-color="#D82D7E"/>
</radialGradient>
<radialGradient id="paint1_radial" cx="0" cy="0" r="1" gradientUnits="userSpaceOnUse" gradientTransform="translate(16.3165 23.6493) scale(27.9318)">
<stop offset="0.64" stop-color="#8C3AAA" stop-opacity="0"/>
<stop offset="1" stop-color="#8C3AAA"/>
</radialGradient>
</defs>
</svg>
