<svg width="24" height="24" viewBox="0 0 24 24" fill="none" xmlns="http://www.w3.org/2000/svg">
<circle cx="12" cy="12" r="12" fill="#2867B2"/>
<path fill-rule="evenodd" clip-rule="evenodd" d="M9.26399 18.1333V9.94654H6.18218V18.1333H9.26399ZM7.72307 8.82878C8.79776 8.82878 9.46667 8.20012 9.46667 7.41449C9.44664 6.61118 8.79776 5.99997 7.74346 5.99997C6.68926 5.99997 6 6.61118 6 7.41449C6 8.20012 6.66876 8.82878 7.70298 8.82878H7.72301H7.72307Z" fill="white"/>
<path fill-rule="evenodd" clip-rule="evenodd" d="M11.2 18.1333H13.7552V13.8773C13.7552 13.6495 13.7718 13.422 13.8393 13.2592C14.024 12.8041 14.4445 12.3327 15.1504 12.3327C16.075 12.3327 16.4449 13.0316 16.4449 14.0562V18.1333H19V13.7634C19 11.4226 17.7393 10.3333 16.0581 10.3333C14.6796 10.3333 14.0745 11.0971 13.7382 11.6174H13.7553V10.5121H11.2C11.2336 11.2273 11.2 18.1333 11.2 18.1333H11.2Z" fill="white"/>
</svg>
