<svg width="37" height="37" viewBox="0 0 37 37" fill="none" xmlns="http://www.w3.org/2000/svg">
<circle cx="18.5" cy="18.5" r="18.5" fill="#2867B2"/>
<path fill-rule="evenodd" clip-rule="evenodd" d="M14.282 27.9551V15.3338H9.53086V27.9551H14.282ZM11.9064 13.6106C13.5632 13.6106 14.5944 12.6414 14.5944 11.4302C14.5636 10.1918 13.5632 9.24952 11.9378 9.24952C10.3126 9.24952 9.25 10.1918 9.25 11.4302C9.25 12.6414 10.281 13.6106 11.8754 13.6106H11.9063H11.9064Z" fill="white"/>
<path fill-rule="evenodd" clip-rule="evenodd" d="M17.2666 27.9551H21.206V21.3938C21.206 21.0426 21.2316 20.6918 21.3356 20.4408C21.6204 19.7392 22.2686 19.0126 23.3568 19.0126C24.7823 19.0126 25.3525 20.09 25.3525 21.6695V27.9551H29.2916V21.2182C29.2916 17.6093 27.3481 15.9301 24.7563 15.9301C22.6311 15.9301 21.6981 17.1077 21.1798 17.9097H21.2061V16.2058H17.2667C17.3184 17.3083 17.2667 27.9551 17.2667 27.9551H17.2666Z" fill="white"/>
</svg>
