<svg width="13" height="12" viewBox="0 0 13 12" fill="none" xmlns="http://www.w3.org/2000/svg">
<path d="M13 0V8.33333C13 8.95217 12.7477 9.54566 12.2986 9.98325C11.8495 10.4208 11.2404 10.6667 10.6053 10.6667C9.97014 10.6667 9.36103 10.4208 8.91193 9.98325C8.46283 9.54566 8.21053 8.95217 8.21053 8.33333C8.21053 7.7145 8.46283 7.121 8.91193 6.68342C9.36103 6.24583 9.97014 6 10.6053 6C10.9747 6 11.3237 6.08 11.6316 6.22667V2.31333L4.78947 3.73333V9.66667C4.78947 10.2855 4.53717 10.879 4.08807 11.3166C3.63897 11.7542 3.02986 12 2.39474 12C1.75961 12 1.1505 11.7542 0.701402 11.3166C0.252302 10.879 0 10.2855 0 9.66667C0 9.04783 0.252302 8.45434 0.701402 8.01675C1.1505 7.57917 1.75961 7.33333 2.39474 7.33333C2.76421 7.33333 3.11316 7.41333 3.42105 7.56V2L13 0Z" fill="#7366CC"/>
</svg>
