<svg width="86" height="86" viewBox="0 0 86 86" fill="none" xmlns="http://www.w3.org/2000/svg">
<circle cx="43.1711" cy="42.829" r="31.0332" transform="rotate(122.39 43.1711 42.829)" fill="url(#paint0_linear)"/>
<g clip-path="url(#clip0)">
<path d="M46.7484 68.344C47.6729 67.3961 48.2441 66.102 48.2441 64.6763C48.2441 61.7773 45.8857 59.4189 42.9867 59.4189C40.0877 59.4189 37.7293 61.7773 37.7293 64.6763C37.7293 66.1021 38.3006 67.3963 39.2253 68.3443C38.8623 68.511 38.5103 68.702 38.1712 68.9166C36.9303 67.3957 35.309 66.1968 33.4534 65.4673C34.8775 64.2692 35.7846 62.4754 35.7846 60.473C35.7846 59.6426 35.6271 58.8486 35.343 58.1174L44.3075 49.6975C45.0542 50.1311 45.9203 50.3807 46.844 50.3807C49.6389 50.3807 51.9127 48.1069 51.9127 45.312C51.9127 42.5172 49.6389 40.2434 46.844 40.2434C44.0491 40.2434 41.7754 42.5172 41.7754 45.312C41.7754 46.209 42.0106 47.0517 42.421 47.7834L33.8465 55.837C32.6667 54.6693 31.0455 53.9466 29.2582 53.9466C27.2011 53.9466 25.3646 54.9041 24.1675 56.3958L15.4764 47.81C15.8962 47.0721 16.1373 46.2199 16.1373 45.312C16.1373 42.5172 13.8636 40.2434 11.0687 40.2434C8.27377 40.2434 6 42.5172 6 45.312C6 48.1069 8.27377 50.3807 11.0686 50.3807C11.9818 50.3807 12.8385 50.1367 13.5792 49.7124L22.9161 58.9362C22.7966 59.4294 22.7317 59.9436 22.7317 60.473C22.7317 62.4753 23.6388 64.2692 25.063 65.4673C23.1372 66.2244 21.4634 67.4866 20.2056 69.0902C19.7857 68.8021 19.3441 68.5517 18.8852 68.3406C19.8078 67.3929 20.3777 66.1003 20.3777 64.6763C20.3777 61.7773 18.0192 59.4189 15.1203 59.4189C12.2214 59.4189 9.86292 61.7773 9.86292 64.6763C9.86292 66.102 10.4341 67.3961 11.3586 68.344C8.26182 69.7722 6.10691 72.9058 6.10691 76.5339V78.9832H52V76.5339C52 72.9058 49.8452 69.7722 46.7484 68.344ZM11.0686 47.6941C9.7552 47.6941 8.6866 46.6255 8.6866 45.312C8.6866 43.9985 9.7552 42.93 11.0686 42.93C12.3821 42.93 13.4507 43.9985 13.4507 45.312C13.4507 46.6255 12.3821 47.6941 11.0686 47.6941ZM42.9867 62.1055C44.4042 62.1055 45.5575 63.2589 45.5575 64.6763C45.5575 66.0938 44.4043 67.2471 42.9867 67.2471C41.5691 67.2471 40.4159 66.0939 40.4159 64.6763C40.4159 63.2589 41.5692 62.1055 42.9867 62.1055ZM46.844 42.93C48.1576 42.93 49.2261 43.9985 49.2261 45.312C49.2261 46.6255 48.1576 47.6941 46.844 47.6941C45.5305 47.6941 44.462 46.6255 44.462 45.312C44.462 43.9985 45.5305 42.93 46.844 42.93ZM29.2582 56.6332C31.3755 56.6332 33.098 58.3557 33.098 60.4731C33.098 62.5904 31.3756 64.3129 29.2582 64.3129C27.1409 64.3129 25.4184 62.5904 25.4184 60.4731C25.4184 58.3557 27.1409 56.6332 29.2582 56.6332ZM15.1203 62.1055C16.5379 62.1055 17.6911 63.2589 17.6911 64.6763C17.6911 66.0938 16.5379 67.2471 15.1203 67.2471C13.7028 67.2471 12.5495 66.0939 12.5495 64.6763C12.5495 63.2589 13.7028 62.1055 15.1203 62.1055ZM8.798 76.2965C8.92316 72.9174 11.7112 70.2072 15.1203 70.2072C16.458 70.2072 17.7351 70.6221 18.8026 71.3888C18.1324 72.847 17.7579 74.4681 17.7579 76.1752V76.2964H8.798V76.2965ZM38.0718 76.2965H20.4445V76.1752C20.4445 71.3154 24.3983 67.3617 29.2581 67.3617C34.1179 67.3617 38.0717 71.3154 38.0717 76.1752V76.2965H38.0718ZM40.7584 76.2965V76.1752C40.7584 74.3866 40.3478 72.6921 39.6161 71.1808C40.619 70.5488 41.7844 70.2072 42.9866 70.2072C46.3957 70.2072 49.1837 72.9174 49.3089 76.2965H40.7584Z" fill="url(#paint1_linear)"/>
<path d="M26.3047 42.748L24.2964 40.9634C25.4828 39.6283 27.1841 38.8625 28.9639 38.8625C30.7437 38.8625 32.4449 39.6283 33.6313 40.9634L31.623 42.748C30.946 41.9861 29.9768 41.5491 28.9638 41.5491C27.951 41.5491 26.9816 41.9861 26.3047 42.748Z" fill="url(#paint2_linear)"/>
<path d="M35.9787 38.8622C34.1947 36.8546 31.6379 35.7032 28.964 35.7032C26.29 35.7032 23.7332 36.8546 21.9492 38.8622L19.9409 37.0775C22.2344 34.4968 25.5232 33.0166 28.964 33.0166C32.4048 33.0166 35.6936 34.4968 37.987 37.0776L35.9787 38.8622Z" fill="url(#paint3_linear)"/>
</g>
<defs>
<linearGradient id="paint0_linear" x1="43.222" y1="-71.4688" x2="43.1711" y2="73.8622" gradientUnits="userSpaceOnUse">
<stop offset="0.620679" stop-color="white"/>
<stop offset="0.758079" stop-color="#F2EDFF"/>
<stop offset="0.971822" stop-color="#DDCEFF"/>
</linearGradient>
<linearGradient id="paint1_linear" x1="29" y1="40.2434" x2="29" y2="78.9832" gradientUnits="userSpaceOnUse">
<stop stop-color="#322970"/>
<stop offset="1" stop-color="#251E54"/>
</linearGradient>
<linearGradient id="paint2_linear" x1="28.9639" y1="38.8625" x2="28.9639" y2="42.748" gradientUnits="userSpaceOnUse">
<stop stop-color="#322970"/>
<stop offset="1" stop-color="#251E54"/>
</linearGradient>
<linearGradient id="paint3_linear" x1="28.964" y1="33.0166" x2="28.964" y2="38.8622" gradientUnits="userSpaceOnUse">
<stop stop-color="#322970"/>
<stop offset="1" stop-color="#251E54"/>
</linearGradient>
<clipPath id="clip0">
<rect width="46" height="46" fill="white" transform="translate(6 33)"/>
</clipPath>
</defs>
</svg>
