<svg width="24" height="24" viewBox="0 0 24 24" fill="none" xmlns="http://www.w3.org/2000/svg">
<path d="M11.9999 9.2C12.7632 9.2 13.4952 9.495 14.0349 10.0201C14.5746 10.5452 14.8779 11.2574 14.8779 12C14.8779 12.7426 14.5746 13.4548 14.0349 13.9799C13.4952 14.505 12.7632 14.8 11.9999 14.8C11.2367 14.8 10.5046 14.505 9.96493 13.9799C9.42522 13.4548 9.12201 12.7426 9.12201 12C9.12201 11.2574 9.42522 10.5452 9.96493 10.0201C10.5046 9.495 11.2367 9.2 11.9999 9.2ZM11.9999 10.6C11.6183 10.6 11.2523 10.7475 10.9824 11.0101C10.7126 11.2726 10.561 11.6287 10.561 12C10.561 12.3713 10.7126 12.7274 10.9824 12.9899C11.2523 13.2525 11.6183 13.4 11.9999 13.4C12.3816 13.4 12.7476 13.2525 13.0174 12.9899C13.2873 12.7274 13.4389 12.3713 13.4389 12C13.4389 11.6287 13.2873 11.2726 13.0174 11.0101C12.7476 10.7475 12.3816 10.6 11.9999 10.6ZM10.561 19C10.3811 19 10.23 18.874 10.2012 18.706L9.93502 16.851C9.48175 16.676 9.09323 16.438 8.7191 16.158L6.92759 16.865C6.7693 16.921 6.57505 16.865 6.48871 16.711L5.04975 14.289C5.00571 14.2169 4.99019 14.1316 5.00608 14.0492C5.02197 13.9667 5.06818 13.8927 5.13608 13.841L6.65419 12.679L6.60382 12L6.65419 11.3L5.13608 10.159C5.06818 10.1073 5.02197 10.0333 5.00608 9.95084C4.99019 9.86839 5.00571 9.78313 5.04975 9.711L6.48871 7.289C6.57505 7.135 6.7693 7.072 6.92759 7.135L8.7191 7.835C9.09323 7.562 9.48175 7.324 9.93502 7.149L10.2012 5.294C10.23 5.126 10.3811 5 10.561 5H13.4389C13.6188 5 13.7699 5.126 13.7986 5.294L14.0648 7.149C14.5181 7.324 14.9066 7.562 15.2808 7.835L17.0723 7.135C17.2306 7.072 17.4248 7.135 17.5112 7.289L18.9501 9.711C19.0436 9.865 19.0005 10.054 18.8638 10.159L17.3457 11.3L17.396 12L17.3457 12.7L18.8638 13.841C19.0005 13.946 19.0436 14.135 18.9501 14.289L17.5112 16.711C17.4248 16.865 17.2306 16.928 17.0723 16.865L15.2808 16.165C14.9066 16.438 14.5181 16.676 14.0648 16.851L13.7986 18.706C13.7699 18.874 13.6188 19 13.4389 19H10.561ZM11.4603 6.4L11.1941 8.227C10.3307 8.402 9.56809 8.85 9.01409 9.473L7.28014 8.745L6.74053 9.655L8.25863 10.74C7.97084 11.5567 7.97084 12.4433 8.25863 13.26L6.73333 14.352L7.27294 15.262L9.02128 14.534C9.57528 15.15 10.3307 15.598 11.1869 15.766L11.4531 17.6H12.5467L12.8129 15.773C13.6691 15.598 14.4246 15.15 14.9786 14.534L16.7269 15.262L17.2665 14.352L15.7412 13.267C16.029 12.448 16.029 11.559 15.7412 10.74L17.2593 9.655L16.7197 8.745L14.9858 9.473C14.4204 8.83623 13.6535 8.40037 12.8057 8.234L12.5395 6.4H11.4603Z" fill="#7366CC"/>
</svg>
