<svg width="12" height="14" viewBox="0 0 12 14" fill="none" xmlns="http://www.w3.org/2000/svg">
<path d="M10 9.90055C9.49333 9.90055 9.04 10.1115 8.69333 10.442L3.94 7.52386C3.97333 7.36213 4 7.2004 4 7.03164C4 6.86288 3.97333 6.70116 3.94 6.53943L8.64 3.64942C9 4.001 9.47333 4.21899 10 4.21899C10.5304 4.21899 11.0391 3.99674 11.4142 3.60113C11.7893 3.20552 12 2.66896 12 2.10949C12 1.55002 11.7893 1.01346 11.4142 0.617856C11.0391 0.22225 10.5304 0 10 0C9.46957 0 8.96086 0.22225 8.58579 0.617856C8.21071 1.01346 8 1.55002 8 2.10949C8 2.27825 8.02667 2.43998 8.06 2.60171L3.36 5.49171C3 5.14013 2.52667 4.92215 2 4.92215C1.46957 4.92215 0.960859 5.1444 0.585787 5.54001C0.210714 5.93561 0 6.47217 0 7.03164C0 7.59111 0.210714 8.12767 0.585787 8.52328C0.960859 8.91889 1.46957 9.14114 2 9.14114C2.52667 9.14114 3 8.92315 3.36 8.57157L8.10667 11.4897C8.07333 11.6374 8.05333 11.7921 8.05333 11.9538C8.05333 13.0859 8.92667 14 10 14C11.0733 14 11.9467 13.0859 11.9467 11.9538C11.9467 11.4092 11.7416 10.887 11.3765 10.5019C11.0114 10.1169 10.5163 9.90055 10 9.90055Z" fill="#7366CC"/>
</svg>
