<svg width="24" height="24" viewBox="0 0 24 24" fill="none" xmlns="http://www.w3.org/2000/svg">
<path d="M12 0C5.4 0 0 5.4 0 12C0 18.6 5.4 24 12 24C18.6 24 24 18.6 24 12C24 5.4 18.6615 0 12 0ZM17.5215 17.3385C17.283 17.7 16.86 17.817 16.5 17.577C13.6785 15.8385 10.1385 15.477 5.9385 16.4385C5.517 16.56 5.16 16.26 5.0385 15.9C4.917 15.4785 5.217 15.1215 5.577 15C10.1385 13.9785 14.0985 14.4 17.2155 16.3215C17.637 16.5 17.6985 16.9785 17.52 17.3385H17.5215ZM18.9615 14.0385C18.6615 14.46 18.123 14.6385 17.7 14.3385C14.4615 12.36 9.5385 11.76 5.7615 12.96C5.283 13.0815 4.74 12.8385 4.623 12.36C4.5015 11.8815 4.7445 11.3385 5.223 11.2215C9.6015 9.9 15.0015 10.56 18.723 12.843C19.08 13.0215 19.2615 13.6215 18.9615 14.0385ZM19.0785 10.6785C15.24 8.4 8.817 8.157 5.157 9.3C4.87853 9.38088 4.57956 9.35096 4.32264 9.21649C4.06573 9.08202 3.87075 8.85342 3.7785 8.5785C3.6 7.9785 3.957 7.3785 4.5 7.2C8.7615 5.9385 15.7785 6.1785 20.2215 8.8215C20.76 9.1215 20.943 9.843 20.643 10.383C20.3385 10.8 19.6215 10.9785 19.077 10.6785H19.0785Z" fill="#1DB954"/>
</svg>
