<svg width="88" height="86" viewBox="0 0 88 86" fill="none" xmlns="http://www.w3.org/2000/svg">
<circle cx="45.1711" cy="42.829" r="31.0332" transform="rotate(122.39 45.1711 42.829)" fill="url(#paint0_linear)"/>
<g clip-path="url(#clip0)">
<path d="M25.7709 32.4626H17.3665C16.6848 32.4626 16.127 33.0205 16.127 33.7022C16.127 34.384 16.6848 34.9418 17.3665 34.9418H25.7709C26.4527 34.9418 27.0105 34.384 27.0105 33.7022C27.0105 33.0205 26.4651 32.4626 25.7709 32.4626Z" fill="url(#paint1_linear)"/>
<path d="M21.5686 75.1411C19.4489 75.1411 17.7383 76.8517 17.7383 78.9714C17.7507 81.0787 19.4613 82.8017 21.581 82.8017C23.6883 82.8017 25.3989 81.0911 25.3989 78.9714C25.3989 76.8517 23.6883 75.1411 21.5686 75.1411ZM21.5686 80.335C20.8248 80.335 20.2174 79.7276 20.2174 78.9838C20.2298 78.2277 20.8372 77.6327 21.581 77.6327C22.3247 77.6327 22.9197 78.2401 22.9197 78.9838C22.9197 79.7276 22.3123 80.335 21.5686 80.335Z" fill="url(#paint2_linear)"/>
<path d="M48.0711 44.7343H38.3032V33.0947C38.3032 30.2808 36.0347 28 33.2209 28H33.2085H9.94155C7.1277 28 4.83447 30.2808 4.83447 33.0947V80.9053C4.83447 83.7192 7.1277 86.0124 9.94155 86H33.1961C36.0099 86 38.2908 83.7316 38.2908 80.9177V80.9053V69.278H48.0587C50.8849 69.278 53.1657 66.9352 53.1657 64.109V49.9034C53.1781 47.0772 50.8849 44.7343 48.0711 44.7343ZM7.31363 33.0947C7.31363 31.6444 8.49124 30.4668 9.94155 30.4792C9.94155 30.4792 9.94155 30.4792 9.95394 30.4792H33.2085C34.6464 30.4792 35.824 31.6444 35.824 33.0823C35.824 33.0947 35.824 33.0947 35.824 33.1071V37.6811H7.31363V33.0947ZM35.824 80.9177C35.824 82.3556 34.6712 83.5332 33.2209 83.5332C33.2085 83.5332 33.2085 83.5332 33.1961 83.5332H9.94155C8.49124 83.5332 7.31363 82.368 7.31363 80.9177C7.31363 80.9177 7.31363 80.9177 7.31363 80.9053V74.3603H35.824V80.9177ZM35.824 71.8812H7.31363V40.1479H35.824V44.7343H22.2258C19.3995 44.7343 17.1063 47.0772 17.1063 49.9034V64.1214C17.1063 66.9476 19.3995 69.2904 22.2258 69.2904H35.824V71.8812ZM50.7114 64.0346H50.699C50.699 65.4849 49.5214 66.6749 48.0587 66.6749H22.2258C20.7755 66.6749 19.5855 65.4973 19.5855 64.0346V49.8538C19.5855 48.4035 20.7631 47.2135 22.2258 47.2135H48.0711C49.5214 47.2135 50.7114 48.3911 50.7114 49.8538V64.0346Z" fill="url(#paint3_linear)"/>
</g>
<defs>
<linearGradient id="paint0_linear" x1="45.222" y1="-71.4688" x2="45.1711" y2="73.8622" gradientUnits="userSpaceOnUse">
<stop offset="0.620679" stop-color="white"/>
<stop offset="0.758079" stop-color="#F2EDFF"/>
<stop offset="0.971822" stop-color="#DDCEFF"/>
</linearGradient>
<linearGradient id="paint1_linear" x1="21.5687" y1="32.4626" x2="21.5687" y2="34.9418" gradientUnits="userSpaceOnUse">
<stop stop-color="#322970"/>
<stop offset="1" stop-color="#251E54"/>
</linearGradient>
<linearGradient id="paint2_linear" x1="21.5686" y1="75.1411" x2="21.5686" y2="82.8017" gradientUnits="userSpaceOnUse">
<stop stop-color="#322970"/>
<stop offset="1" stop-color="#251E54"/>
</linearGradient>
<linearGradient id="paint3_linear" x1="29.0001" y1="28" x2="29.0001" y2="86" gradientUnits="userSpaceOnUse">
<stop stop-color="#322970"/>
<stop offset="1" stop-color="#251E54"/>
</linearGradient>
<clipPath id="clip0">
<rect width="58" height="58" fill="white" transform="translate(0 28)"/>
</clipPath>
</defs>
</svg>
