<svg width="78" height="60" viewBox="0 0 78 60" fill="none" xmlns="http://www.w3.org/2000/svg">
<path d="M12.8364 54.4522C12.7991 57.2744 15.0769 59.7452 18.0731 59.7452H18.0744C19.9172 59.7452 21.624 58.7764 22.5687 57.1939L33.0644 39.6114C33.5485 38.8002 33.8042 37.8733 33.8042 36.9286V5.23412C33.8042 2.34328 31.461 0 28.5701 0H5.23412C2.34328 0 0 2.34328 0 5.23412V33.1376C0 36.0285 2.34328 38.3717 5.23412 38.3717H12.6323C13.8536 38.3717 14.8951 38.9873 15.5153 39.896L13.0431 48.4978C12.8998 48.9963 12.8344 49.4948 12.837 49.9822V54.4522H12.8364Z" fill="url(#paint0_linear)"/>
<path d="M0 5.23412V28.5708C0 31.4616 2.34328 33.8049 5.23412 33.8049H12.6323C14.9527 33.8049 16.6274 36.0278 15.9863 38.2586L13.0431 48.4985C12.0814 51.844 14.5929 55.1784 18.0738 55.1784H18.0751C19.9179 55.1784 21.6247 54.2095 22.5693 52.627L33.065 35.0446C33.5491 34.2334 33.8049 33.3064 33.8049 32.3618V5.23412C33.8049 2.34328 31.4616 0 28.5708 0H5.23412C2.34328 0 0 2.34328 0 5.23412Z" fill="url(#paint1_linear)"/>
<path d="M56.2252 54.4522C56.1879 57.2744 58.4658 59.7452 61.4619 59.7452H61.4632C63.3061 59.7452 65.0128 58.7764 65.9575 57.1939L76.4532 39.6114C76.9373 38.8002 77.1931 37.8733 77.1931 36.9286V5.23412C77.1931 2.34328 74.8498 0 71.959 0H48.6223C45.7315 0 43.3882 2.34328 43.3882 5.23412V33.1376C43.3882 36.0285 45.7315 38.3717 48.6223 38.3717H56.0205C57.2418 38.3717 58.2833 38.9873 58.9034 39.896L56.4313 48.4978C56.288 48.9963 56.2226 49.4948 56.2252 49.9822V54.4522Z" fill="url(#paint2_linear)"/>
<path d="M43.3892 5.23412V28.5708C43.3892 31.4616 45.7324 33.8049 48.6233 33.8049H56.0214C58.3418 33.8049 60.0165 36.0278 59.3754 38.2586L56.4323 48.4985C55.4706 51.844 57.982 55.1784 61.4629 55.1784H61.4642C63.3071 55.1784 65.0138 54.2095 65.9585 52.627L76.4542 35.0446C76.9383 34.2334 77.1941 33.3064 77.1941 32.3618V5.23412C77.1941 2.34328 74.8508 0 71.9599 0H48.6233C45.7324 0 43.3892 2.34328 43.3892 5.23412Z" fill="url(#paint3_linear)"/>
<defs>
<linearGradient id="paint0_linear" x1="16.9021" y1="0" x2="16.9021" y2="59.7452" gradientUnits="userSpaceOnUse">
<stop stop-color="#322970"/>
<stop offset="1" stop-color="#251E54"/>
</linearGradient>
<linearGradient id="paint1_linear" x1="16.9025" y1="-24.211" x2="16.9025" y2="55.1782" gradientUnits="userSpaceOnUse">
<stop stop-color="#8C59FE"/>
<stop offset="1" stop-color="#6234CB"/>
</linearGradient>
<linearGradient id="paint2_linear" x1="60.2906" y1="0" x2="60.2906" y2="59.7452" gradientUnits="userSpaceOnUse">
<stop stop-color="#322970"/>
<stop offset="1" stop-color="#251E54"/>
</linearGradient>
<linearGradient id="paint3_linear" x1="60.2916" y1="-24.211" x2="60.2916" y2="55.1782" gradientUnits="userSpaceOnUse">
<stop stop-color="#8C59FE"/>
<stop offset="1" stop-color="#6234CB"/>
</linearGradient>
</defs>
</svg>
