<svg width="86" height="86" viewBox="0 0 86 86" fill="none" xmlns="http://www.w3.org/2000/svg">
<circle cx="43.1711" cy="42.829" r="31.0332" transform="rotate(122.39 43.1711 42.829)" fill="url(#paint0_linear)"/>
<path d="M30.4998 28.3889C25.1377 28.3889 19.8961 29.979 15.4377 32.958C10.9793 35.937 7.50437 40.1711 5.45239 45.1251C3.40042 50.079 2.86353 55.5301 3.90962 60.7891C4.9557 66.0482 7.53779 70.8789 11.3293 74.6705C15.1209 78.462 19.9516 81.0441 25.2107 82.0902C30.4697 83.1363 35.9209 82.5994 40.8748 80.5474C45.8287 78.4955 50.0629 75.0206 53.0419 70.5622C56.0209 66.1038 57.6109 60.8621 57.6109 55.5C57.6109 48.3097 54.7546 41.4139 49.6702 36.3296C44.5859 31.2453 37.6901 28.3889 30.4998 28.3889ZM30.4998 79.2223C25.808 79.2223 21.2215 77.831 17.3204 75.2243C13.4193 72.6177 10.3788 68.9128 8.58332 64.5781C6.78784 60.2435 6.31806 55.4737 7.23339 50.8721C8.14872 46.2704 10.408 42.0435 13.7257 38.7259C17.0433 35.4083 21.2702 33.1489 25.8718 32.2336C30.4735 31.3183 35.2432 31.7881 39.5779 33.5836C43.9126 35.379 47.6175 38.4196 50.2241 42.3207C52.8307 46.2218 54.222 50.8082 54.222 55.5C54.222 61.7916 51.7227 67.8254 47.2739 72.2742C42.8252 76.723 36.7913 79.2223 30.4998 79.2223Z" fill="url(#paint1_linear)"/>
<path d="M32.0588 56.1777V43.2152C32.0588 42.7658 31.8803 42.3348 31.5625 42.017C31.2448 41.6993 30.8138 41.5208 30.3644 41.5208C29.915 41.5208 29.484 41.6993 29.1662 42.017C28.8484 42.3348 28.6699 42.7658 28.6699 43.2152V57.9908L38.6671 64.7685C38.8513 64.907 39.0618 65.0065 39.2857 65.0609C39.5096 65.1153 39.7423 65.1235 39.9694 65.0849C40.1966 65.0463 40.4135 64.9618 40.6069 64.8365C40.8003 64.7112 40.9661 64.5478 41.0942 64.3562C41.2223 64.1647 41.31 63.949 41.3519 63.7224C41.3938 63.4958 41.389 63.2631 41.3379 63.0384C41.2867 62.8137 41.1903 62.6018 41.0545 62.4157C40.9187 62.2295 40.7463 62.073 40.548 61.9558L32.0588 56.1777Z" fill="url(#paint2_linear)"/>
<path d="M13.5556 55.3986C13.5401 52.3503 14.3521 49.355 15.9051 46.732C17.4582 44.109 19.6939 41.9566 22.374 40.5044C25.0541 39.0522 28.0781 38.3545 31.1236 38.4858C34.169 38.6171 37.1218 39.5724 39.667 41.2499L41.1072 38.9455C38.6897 37.3619 35.9513 36.3333 33.089 35.9338C30.2267 35.5342 27.3114 35.7736 24.5526 36.6346C21.7937 37.4957 19.2598 38.957 17.1329 40.9138C15.006 42.8705 13.3389 45.274 12.2512 47.9516C11.1636 50.6292 10.6825 53.5145 10.8425 56.4001C11.0025 59.2858 11.7996 62.1002 13.1766 64.6411C14.5536 67.1821 16.4762 69.3866 18.8064 71.0962C21.1366 72.8058 23.8165 73.9781 26.6536 74.5288L27.1111 71.9363C23.2952 71.1574 19.8641 69.0878 17.3952 66.0758C14.9263 63.0637 13.5704 59.2931 13.5556 55.3986Z" fill="url(#paint3_linear)"/>
<defs>
<linearGradient id="paint0_linear" x1="43.222" y1="-71.4688" x2="43.1711" y2="73.8622" gradientUnits="userSpaceOnUse">
<stop offset="0.620679" stop-color="white"/>
<stop offset="0.758079" stop-color="#F2EDFF"/>
<stop offset="0.971822" stop-color="#DDCEFF"/>
</linearGradient>
<linearGradient id="paint1_linear" x1="30.4998" y1="28.3889" x2="30.4998" y2="82.6112" gradientUnits="userSpaceOnUse">
<stop stop-color="#322970"/>
<stop offset="1" stop-color="#251E54"/>
</linearGradient>
<linearGradient id="paint2_linear" x1="35.025" y1="41.5208" x2="35.025" y2="65.1088" gradientUnits="userSpaceOnUse">
<stop stop-color="#322970"/>
<stop offset="1" stop-color="#251E54"/>
</linearGradient>
<linearGradient id="paint3_linear" x1="25.9599" y1="35.7458" x2="25.9599" y2="74.5288" gradientUnits="userSpaceOnUse">
<stop stop-color="#322970"/>
<stop offset="1" stop-color="#251E54"/>
</linearGradient>
</defs>
</svg>
