<svg width="12" height="13" viewBox="0 0 12 13" fill="none" xmlns="http://www.w3.org/2000/svg">
<path d="M5.08468 7.05474C5.35084 7.31302 5.35084 7.73686 5.08468 7.99514C4.83151 8.25342 4.41605 8.25342 4.16287 7.99514C3.55485 7.37393 3.21335 6.53195 3.21335 5.65409C3.21335 4.77622 3.55485 3.93424 4.16287 3.31303L6.46091 0.968667C7.06984 0.34839 7.89518 0 8.75569 0C9.61621 0 10.4415 0.34839 11.0505 0.968667C11.6585 1.58988 12 2.43186 12 3.30972C12 4.18758 11.6585 5.02957 11.0505 5.65077L10.0832 6.63753C10.0897 6.09448 10.0053 5.55144 9.82356 5.03488L10.1287 4.717C10.3107 4.53335 10.4551 4.3147 10.5537 4.07371C10.6523 3.83272 10.7031 3.57417 10.7031 3.31303C10.7031 3.05189 10.6523 2.79334 10.5537 2.55235C10.4551 2.31136 10.3107 2.09271 10.1287 1.90906C9.94865 1.72341 9.73432 1.57602 9.49809 1.47543C9.26186 1.37485 9.00842 1.32305 8.75245 1.32305C8.49646 1.32305 8.24303 1.37485 8.0068 1.47543C7.77057 1.57602 7.55624 1.72341 7.37622 1.90906L5.08468 4.2468C4.9027 4.43045 4.75822 4.6491 4.65962 4.89009C4.56102 5.13108 4.51025 5.38963 4.51025 5.65077C4.51025 5.91192 4.56102 6.17046 4.65962 6.41145C4.75822 6.65245 4.9027 6.87109 5.08468 7.05474ZM6.91532 4.2468C7.16849 3.98853 7.58395 3.98853 7.83713 4.2468C8.44515 4.86801 8.78665 5.70999 8.78665 6.58786C8.78665 7.46572 8.44515 8.3077 7.83713 8.92891L5.5391 11.2733C4.93016 11.8936 4.10482 12.2419 3.24431 12.2419C2.3838 12.2419 1.55845 11.8936 0.949523 11.2733C0.341504 10.6521 0 9.81009 0 8.93222C0 8.05436 0.341504 7.21238 0.949523 6.59117L1.91677 5.60442C1.91028 6.14746 1.99467 6.69051 2.17644 7.21368L1.87133 7.52494C1.68935 7.70859 1.54487 7.92724 1.44627 8.16823C1.34767 8.40922 1.2969 8.66777 1.2969 8.92891C1.2969 9.19005 1.34767 9.4486 1.44627 9.68959C1.54487 9.93058 1.68935 10.1492 1.87133 10.3329C2.05135 10.5185 2.26568 10.6659 2.50191 10.7665C2.73814 10.8671 2.99158 10.9189 3.24756 10.9189C3.50354 10.9189 3.75697 10.8671 3.9932 10.7665C4.22943 10.6659 4.44376 10.5185 4.62378 10.3329L6.91532 7.99514C7.0973 7.81149 7.24178 7.59284 7.34038 7.35185C7.43898 7.11086 7.48975 6.85231 7.48975 6.59117C7.48975 6.33003 7.43898 6.07148 7.34038 5.83049C7.24178 5.5895 7.0973 5.37085 6.91532 5.1872C6.85227 5.12693 6.80201 5.0541 6.76766 4.97323C6.7333 4.89235 6.71557 4.80515 6.71557 4.717C6.71557 4.62886 6.7333 4.54165 6.76766 4.46077C6.80201 4.3799 6.85227 4.30707 6.91532 4.2468Z" fill="#7366CC"/>
</svg>
