<svg width="24" height="24" viewBox="0 0 24 24" fill="none" xmlns="http://www.w3.org/2000/svg">
<circle cx="12" cy="12" r="12" fill="#1DA1F2"/>
<path d="M19 8.18251C18.4753 8.38712 17.9195 8.52129 17.3508 8.58064C17.9477 8.26766 18.3966 7.77133 18.6136 7.18439C18.048 7.47835 17.4311 7.68539 16.7887 7.79689C16.5182 7.54389 16.1928 7.34276 15.8323 7.20575C15.4719 7.06875 15.0839 6.99875 14.6922 7.00002C13.106 7.00002 11.8201 8.13126 11.8201 9.52501C11.8201 9.72251 11.8453 9.91564 11.8943 10.1C10.7565 10.0517 9.64248 9.79214 8.62332 9.33791C7.60415 8.88368 6.70223 8.24475 5.9751 7.46189C5.72018 7.84589 5.58619 8.28425 5.5873 8.73064C5.58779 9.14812 5.70478 9.5589 5.9277 9.92588C6.15063 10.2929 6.47245 10.6045 6.8641 10.8325C6.40874 10.8194 5.96321 10.7108 5.5635 10.5156V10.5469C5.5635 11.7706 6.554 12.7913 7.8665 13.0238C7.61983 13.0822 7.36571 13.1118 7.1105 13.1119C6.925 13.1119 6.7451 13.0963 6.5694 13.065C6.75706 13.57 7.11617 14.0102 7.59687 14.3246C8.07757 14.639 8.65599 14.8119 9.2518 14.8194C8.22985 15.5222 6.97527 15.9019 5.6853 15.8987C5.4529 15.8987 5.2247 15.8862 5 15.8637C6.31688 16.6079 7.84381 17.002 9.4023 17C14.6852 17 17.5734 13.1519 17.5734 9.81501L17.5636 9.48814C18.127 9.13418 18.6137 8.69179 19 8.18251Z" fill="#F8F7F9"/>
</svg>
