<svg width="13" height="12" viewBox="0 0 13 12" fill="none" xmlns="http://www.w3.org/2000/svg">
<path d="M12.3158 10V10.6667C12.3158 11.0203 12.1716 11.3594 11.915 11.6095C11.6584 11.8595 11.3103 12 10.9474 12H1.36842C1.00549 12 0.65743 11.8595 0.400801 11.6095C0.144172 11.3594 0 11.0203 0 10.6667V1.33333C0 0.979711 0.144172 0.640573 0.400801 0.390524C0.65743 0.140476 1.00549 0 1.36842 0H10.9474C11.3103 0 11.6584 0.140476 11.915 0.390524C12.1716 0.640573 12.3158 0.979711 12.3158 1.33333V2H6.1579C5.79497 2 5.4469 2.14048 5.19028 2.39052C4.93365 2.64057 4.78947 2.97971 4.78947 3.33333V8.66667C4.78947 9.02029 4.93365 9.35943 5.19028 9.60948C5.4469 9.85952 5.79497 10 6.1579 10H12.3158ZM6.1579 8.66667H13V3.33333H6.1579V8.66667ZM8.89474 7C8.62254 7 8.36149 6.89464 8.16902 6.70711C7.97655 6.51957 7.86842 6.26522 7.86842 6C7.86842 5.73478 7.97655 5.48043 8.16902 5.29289C8.36149 5.10536 8.62254 5 8.89474 5C9.16693 5 9.42798 5.10536 9.62045 5.29289C9.81292 5.48043 9.92105 5.73478 9.92105 6C9.92105 6.26522 9.81292 6.51957 9.62045 6.70711C9.42798 6.89464 9.16693 7 8.89474 7Z" fill="#7366CC"/>
</svg>
