<svg width="24" height="24" viewBox="0 0 24 24" fill="none" xmlns="http://www.w3.org/2000/svg">
<circle cx="12" cy="12" r="12" fill="#4BA5F9"/>
<path d="M15.488 13.5674C15.552 13.0412 15.6 12.515 15.6 11.9729C15.6 11.4307 15.552 10.9045 15.488 10.3783H18.192C18.32 10.8886 18.4 11.4227 18.4 11.9729C18.4 12.523 18.32 13.0572 18.192 13.5674H15.488ZM14.072 18.0004C14.552 17.1154 14.92 16.1586 15.176 15.162H17.536C16.7609 16.4921 15.5313 17.4997 14.072 18.0004ZM13.872 13.5674H10.128C10.048 13.0412 10 12.515 10 11.9729C10 11.4307 10.048 10.8965 10.128 10.3783H13.872C13.944 10.8965 14 11.4307 14 11.9729C14 12.515 13.944 13.0412 13.872 13.5674ZM12 18.3193C11.336 17.3625 10.8 16.3021 10.472 15.162H13.528C13.2 16.3021 12.664 17.3625 12 18.3193ZM8.8 8.78372H6.464C7.23108 7.45003 8.45984 6.44088 9.92 5.94538C9.44 6.83037 9.08 7.78711 8.8 8.78372ZM6.464 15.162H8.8C9.08 16.1586 9.44 17.1154 9.92 18.0004C8.4629 17.4994 7.23588 16.4917 6.464 15.162ZM5.808 13.5674C5.68 13.0572 5.6 12.523 5.6 11.9729C5.6 11.4227 5.68 10.8886 5.808 10.3783H8.512C8.448 10.9045 8.4 11.4307 8.4 11.9729C8.4 12.515 8.448 13.0412 8.512 13.5674H5.808ZM12 5.61849C12.664 6.57524 13.2 7.6436 13.528 8.78372H10.472C10.8 7.6436 11.336 6.57524 12 5.61849ZM17.536 8.78372H15.176C14.9256 7.79625 14.5549 6.84304 14.072 5.94538C15.544 6.44767 16.768 7.46023 17.536 8.78372ZM12 4C7.576 4 4 7.58779 4 11.9729C4 14.0874 4.84285 16.1153 6.34315 17.6105C7.08601 18.3509 7.96793 18.9382 8.93853 19.3388C9.90914 19.7395 10.9494 19.9457 12 19.9457C14.1217 19.9457 16.1566 19.1057 17.6569 17.6105C19.1571 16.1153 20 14.0874 20 11.9729C20 10.9259 19.7931 9.8891 19.391 8.92178C18.989 7.95447 18.3997 7.07555 17.6569 6.3352C16.914 5.59485 16.0321 5.00757 15.0615 4.6069C14.0909 4.20622 13.0506 4 12 4Z" fill="#F8F7F9"/>
</svg>
